<svg width="137" height="33" viewBox="0 0 137 33" fill="none" xmlns="http://www.w3.org/2000/svg">
<g clip-path="url(#clip0_4782_4468)">
<rect width="32.2857" height="32.2857" rx="16.1428" fill="#E0F7FF"/>
<path d="M32.2409 17.3535H26.4742C21.4369 17.3535 17.3535 21.437 17.3535 26.4742V32.2409C25.3038 31.6514 31.6514 25.3038 32.2409 17.3535Z" fill="#0B1A43"/>
<path d="M14.9324 32.2409V26.4742C14.9324 21.437 10.8489 17.3535 5.81163 17.3535H0.0449219C0.634405 25.3038 6.98206 31.6514 14.9324 32.2409Z" fill="#0B1A43"/>
<path d="M32.2409 14.9324C31.6514 6.98206 25.3038 0.634405 17.3535 0.0449219V5.81162C17.3535 10.8489 21.4369 14.9324 26.4742 14.9324H32.2409Z" fill="#0B1A43"/>
<path d="M14.9324 0.0449219C6.98206 0.634405 0.634405 6.98206 0.0449219 14.9324H5.81163C10.8489 14.9324 14.9324 10.8489 14.9324 5.81162V0.0449219Z" fill="#0B1A43"/>
<path d="M10.9629 16.1416C13.2007 15.0235 15.0244 13.1997 16.1425 10.9619C17.2606 13.1997 19.0843 15.0235 21.3222 16.1416C19.0843 17.2596 17.2606 19.0834 16.1425 21.3212C15.0244 19.0834 13.2007 17.2596 10.9629 16.1416Z" fill="#3ACEFF"/>
</g>
<path d="M41.6247 21.76C40.7633 21.76 39.9914 21.6202 39.3091 21.3405C38.6267 21.0609 38.0785 20.647 37.6646 20.0988C37.2619 19.5507 37.0494 18.8907 37.027 18.1188H40.0809C40.1257 18.5551 40.2767 18.8907 40.534 19.1256C40.7913 19.3493 41.1269 19.4612 41.5408 19.4612C41.9659 19.4612 42.3015 19.3661 42.5476 19.176C42.7937 18.9746 42.9167 18.7005 42.9167 18.3537C42.9167 18.0629 42.816 17.8224 42.6147 17.6322C42.4245 17.442 42.184 17.2854 41.8931 17.1624C41.6135 17.0393 41.2108 16.8995 40.685 16.7429C39.9243 16.508 39.3035 16.2731 38.8225 16.0381C38.3414 15.8032 37.9275 15.4564 37.5807 14.9978C37.234 14.5391 37.0606 13.9407 37.0606 13.2024C37.0606 12.1061 37.4577 11.2503 38.2519 10.6351C39.0462 10.0086 40.0809 9.69538 41.3562 9.69538C42.6538 9.69538 43.6998 10.0086 44.494 10.6351C45.2883 11.2503 45.7133 12.1117 45.7693 13.2191H42.665C42.6426 12.8388 42.5028 12.5424 42.2455 12.3298C41.9882 12.1061 41.6582 11.9942 41.2555 11.9942C40.9087 11.9942 40.6291 12.0893 40.4165 12.2795C40.204 12.4585 40.0977 12.7213 40.0977 13.0681C40.0977 13.4485 40.2767 13.7449 40.6347 13.9574C40.9926 14.17 41.552 14.3993 42.3126 14.6454C43.0733 14.9027 43.6886 15.1488 44.1584 15.3837C44.6394 15.6186 45.0533 15.9598 45.4001 16.4073C45.7469 16.8548 45.9203 17.4309 45.9203 18.1356C45.9203 18.8068 45.7469 19.4165 45.4001 19.9646C45.0645 20.5127 44.5723 20.949 43.9235 21.2734C43.2747 21.5978 42.5084 21.76 41.6247 21.76ZM46.9784 16.9442C46.9784 15.9822 47.1574 15.1376 47.5153 14.4105C47.8845 13.6834 48.3823 13.124 49.0087 12.7325C49.6352 12.341 50.3343 12.1452 51.1062 12.1452C51.7662 12.1452 52.3423 12.2795 52.8345 12.5479C53.3379 12.8164 53.7238 13.1688 53.9923 13.6051V12.2795H56.8617V21.6426H53.9923V20.317C53.7127 20.7533 53.3211 21.1056 52.8177 21.3741C52.3255 21.6426 51.7494 21.7768 51.0894 21.7768C50.3287 21.7768 49.6352 21.5811 49.0087 21.1895C48.3823 20.7868 47.8845 20.2219 47.5153 19.4948C47.1574 18.7565 46.9784 17.9063 46.9784 16.9442ZM53.9923 16.961C53.9923 16.2451 53.791 15.6802 53.3882 15.2663C52.9967 14.8524 52.5157 14.6454 51.9452 14.6454C51.3747 14.6454 50.8881 14.8524 50.4853 15.2663C50.0938 15.669 49.8981 16.2283 49.8981 16.9442C49.8981 17.6602 50.0938 18.2307 50.4853 18.6558C50.8881 19.0697 51.3747 19.2766 51.9452 19.2766C52.5157 19.2766 52.9967 19.0697 53.3882 18.6558C53.791 18.2419 53.9923 17.677 53.9923 16.961ZM63.4986 14.6622H61.9549V21.6426H59.0855V14.6622H58.0452V12.2795H59.0855V12.011C59.0855 10.8588 59.4155 9.98623 60.0755 9.39335C60.7356 8.78928 61.7032 8.48724 62.9784 8.48724C63.191 8.48724 63.3476 8.49283 63.4483 8.50402V10.9371C62.9001 10.9035 62.5142 10.9818 62.2905 11.172C62.0667 11.3622 61.9549 11.7034 61.9549 12.1956V12.2795H63.4986V14.6622ZM73.5358 16.81C73.5358 17.0785 73.5191 17.3581 73.4855 17.649H66.9917C67.0365 18.2307 67.2211 18.6782 67.5455 18.9914C67.8811 19.2934 68.2894 19.4444 68.7704 19.4444C69.4863 19.4444 69.9841 19.1424 70.2638 18.5383H73.3177C73.1611 19.1536 72.8758 19.7073 72.4619 20.1995C72.0592 20.6917 71.5502 21.0777 70.935 21.3573C70.3197 21.637 69.6318 21.7768 68.8711 21.7768C67.9538 21.7768 67.1372 21.5811 66.4212 21.1895C65.7053 20.798 65.146 20.2387 64.7432 19.5115C64.3405 18.7844 64.1392 17.9342 64.1392 16.961C64.1392 15.9878 64.3349 15.1376 64.7265 14.4105C65.1292 13.6834 65.6885 13.124 66.4044 12.7325C67.1204 12.341 67.9426 12.1452 68.8711 12.1452C69.7772 12.1452 70.5826 12.3354 71.2874 12.7157C71.9921 13.0961 72.5402 13.6386 72.9318 14.3434C73.3345 15.0481 73.5358 15.8703 73.5358 16.81ZM70.5994 16.0549C70.5994 15.5627 70.4316 15.1712 70.096 14.8803C69.7604 14.5895 69.3409 14.4441 68.8375 14.4441C68.3565 14.4441 67.9482 14.5839 67.6126 14.8636C67.2882 15.1432 67.0868 15.5403 67.0085 16.0549H70.5994ZM82.2451 19.5619H77.8488L77.1441 21.6426H74.1405L78.4025 9.86318H81.7249L85.987 21.6426H82.9499L82.2451 19.5619ZM81.5068 17.347L80.047 13.0346L78.6039 17.347H81.5068ZM92.8521 12.1788C93.9483 12.1788 94.8209 12.5368 95.4697 13.2527C96.1297 13.9574 96.4597 14.9307 96.4597 16.1724V21.6426H93.6071V16.5583C93.6071 15.9319 93.4449 15.4453 93.1205 15.0985C92.7961 14.7517 92.3599 14.5783 91.8117 14.5783C91.2636 14.5783 90.8273 14.7517 90.5029 15.0985C90.1785 15.4453 90.0163 15.9319 90.0163 16.5583V21.6426H87.1469V12.2795H90.0163V13.5212C90.3071 13.1073 90.6987 12.7829 91.1909 12.5479C91.6831 12.3018 92.2368 12.1788 92.8521 12.1788ZM97.7459 16.961C97.7459 15.9878 97.9417 15.1376 98.3332 14.4105C98.7359 13.6834 99.2896 13.124 99.9944 12.7325C100.71 12.341 101.527 12.1452 102.444 12.1452C103.619 12.1452 104.598 12.4529 105.381 13.0681C106.175 13.6834 106.695 14.5503 106.941 15.669H103.887C103.63 14.953 103.132 14.5951 102.394 14.5951C101.868 14.5951 101.449 14.802 101.135 15.2159C100.822 15.6186 100.666 16.2003 100.666 16.961C100.666 17.7217 100.822 18.309 101.135 18.7229C101.449 19.1256 101.868 19.327 102.394 19.327C103.132 19.327 103.63 18.969 103.887 18.2531H106.941C106.695 19.3493 106.175 20.2107 105.381 20.8371C104.586 21.4636 103.608 21.7768 102.444 21.7768C101.527 21.7768 100.71 21.5811 99.9944 21.1895C99.2896 20.798 98.7359 20.2387 98.3332 19.5115C97.9417 18.7844 97.7459 17.9342 97.7459 16.961ZM114.094 12.1788C115.168 12.1788 116.03 12.5368 116.678 13.2527C117.327 13.9574 117.652 14.9307 117.652 16.1724V21.6426H114.799V16.5583C114.799 15.9319 114.637 15.4453 114.312 15.0985C113.988 14.7517 113.552 14.5783 113.004 14.5783C112.455 14.5783 112.019 14.7517 111.695 15.0985C111.37 15.4453 111.208 15.9319 111.208 16.5583V21.6426H108.339V9.22555H111.208V13.538C111.499 13.124 111.896 12.794 112.4 12.5479C112.903 12.3018 113.468 12.1788 114.094 12.1788ZM123.77 21.7768C122.853 21.7768 122.025 21.5811 121.287 21.1895C120.56 20.798 119.984 20.2387 119.559 19.5115C119.145 18.7844 118.938 17.9342 118.938 16.961C118.938 15.999 119.15 15.1544 119.575 14.4273C120 13.689 120.582 13.124 121.32 12.7325C122.059 12.341 122.887 12.1452 123.804 12.1452C124.721 12.1452 125.549 12.341 126.287 12.7325C127.026 13.124 127.607 13.689 128.032 14.4273C128.457 15.1544 128.67 15.999 128.67 16.961C128.67 17.9231 128.452 18.7732 128.016 19.5115C127.591 20.2387 127.003 20.798 126.254 21.1895C125.515 21.5811 124.688 21.7768 123.77 21.7768ZM123.77 19.2934C124.318 19.2934 124.783 19.0921 125.163 18.6893C125.555 18.2866 125.75 17.7105 125.75 16.961C125.75 16.2115 125.56 15.6354 125.18 15.2327C124.811 14.83 124.352 14.6286 123.804 14.6286C123.245 14.6286 122.78 14.83 122.411 15.2327C122.042 15.6242 121.857 16.2003 121.857 16.961C121.857 17.7105 122.036 18.2866 122.394 18.6893C122.764 19.0921 123.222 19.2934 123.77 19.2934ZM132.924 13.84C133.26 13.3254 133.679 12.9227 134.183 12.6318C134.686 12.3298 135.246 12.1788 135.861 12.1788V15.2159H135.072C134.356 15.2159 133.819 15.3725 133.461 15.6858C133.103 15.9878 132.924 16.5247 132.924 17.2966V21.6426H130.055V12.2795H132.924V13.84Z" fill="#0B1A43"/>
<defs>
<clipPath id="clip0_4782_4468">
<rect width="32.2857" height="32.2857" rx="16.1428" fill="white"/>
</clipPath>
</defs>
</svg>
